<mxfile host="app.diagrams.net" agent="Mozilla/5.0 (Windows NT 10.0; Win64; x64) AppleWebKit/537.36 (KHTML, like Gecko) Chrome/141.0.0.0 Safari/537.36" version="28.2.7" pages="3">
  <diagram name="Download Media To Device- Application view architecture" id="BvWUH96QK5WBbq3DRv7V">
    <mxGraphModel dx="4995" dy="2384" grid="1" gridSize="10" guides="1" tooltips="1" connect="1" arrows="1" fold="1" page="1" pageScale="1" pageWidth="827" pageHeight="1169" math="0" shadow="0">
      <root>
        <mxCell id="0" />
        <mxCell id="1" parent="0" />
        <mxCell id="TmMnOaNNOWwm7J46SwEm-1" value="&lt;h1 style=&quot;margin-top: 0px;&quot;&gt;Download Media To Device- Application(User) flow&lt;/h1&gt;&lt;p&gt;Goal:To show the user&#39;s journey in saving a cloud based-photo back to their local device.&lt;/p&gt;" style="text;html=1;whiteSpace=wrap;overflow=hidden;rounded=0;" vertex="1" parent="1">
          <mxGeometry x="-790" y="40" width="610" height="100" as="geometry" />
        </mxCell>
        <mxCell id="TmMnOaNNOWwm7J46SwEm-4" style="edgeStyle=orthogonalEdgeStyle;rounded=0;orthogonalLoop=1;jettySize=auto;html=1;entryX=0;entryY=0.5;entryDx=0;entryDy=0;" edge="1" parent="1" source="TmMnOaNNOWwm7J46SwEm-2" target="TmMnOaNNOWwm7J46SwEm-3">
          <mxGeometry relative="1" as="geometry" />
        </mxCell>
        <mxCell id="TmMnOaNNOWwm7J46SwEm-2" value="Start" style="ellipse;whiteSpace=wrap;html=1;aspect=fixed;" vertex="1" parent="1">
          <mxGeometry x="-810" y="230" width="80" height="80" as="geometry" />
        </mxCell>
        <mxCell id="TmMnOaNNOWwm7J46SwEm-6" style="edgeStyle=orthogonalEdgeStyle;rounded=0;orthogonalLoop=1;jettySize=auto;html=1;entryX=0;entryY=0.5;entryDx=0;entryDy=0;" edge="1" parent="1" source="TmMnOaNNOWwm7J46SwEm-3" target="TmMnOaNNOWwm7J46SwEm-5">
          <mxGeometry relative="1" as="geometry" />
        </mxCell>
        <mxCell id="TmMnOaNNOWwm7J46SwEm-3" value="User taps &quot;download: button&lt;div&gt;(this might be in the three dots menu)&lt;/div&gt;" style="rounded=0;whiteSpace=wrap;html=1;" vertex="1" parent="1">
          <mxGeometry x="-600" y="240" width="250" height="60" as="geometry" />
        </mxCell>
        <mxCell id="TmMnOaNNOWwm7J46SwEm-8" style="edgeStyle=orthogonalEdgeStyle;rounded=0;orthogonalLoop=1;jettySize=auto;html=1;entryX=0;entryY=0.5;entryDx=0;entryDy=0;" edge="1" parent="1" source="TmMnOaNNOWwm7J46SwEm-5" target="TmMnOaNNOWwm7J46SwEm-7">
          <mxGeometry relative="1" as="geometry" />
        </mxCell>
        <mxCell id="TmMnOaNNOWwm7J46SwEm-5" value="UI shows the &quot;downloading&quot; message" style="rounded=0;whiteSpace=wrap;html=1;" vertex="1" parent="1">
          <mxGeometry x="-230" y="240" width="230" height="60" as="geometry" />
        </mxCell>
        <mxCell id="TmMnOaNNOWwm7J46SwEm-10" style="edgeStyle=orthogonalEdgeStyle;rounded=0;orthogonalLoop=1;jettySize=auto;html=1;" edge="1" parent="1" source="TmMnOaNNOWwm7J46SwEm-7" target="TmMnOaNNOWwm7J46SwEm-9">
          <mxGeometry relative="1" as="geometry" />
        </mxCell>
        <mxCell id="TmMnOaNNOWwm7J46SwEm-7" value="&quot;Begin Background Process: Dowload pic&quot;" style="rounded=0;whiteSpace=wrap;html=1;dashed=1;" vertex="1" parent="1">
          <mxGeometry x="140" y="240" width="190" height="60" as="geometry" />
        </mxCell>
        <mxCell id="TmMnOaNNOWwm7J46SwEm-11" style="edgeStyle=orthogonalEdgeStyle;rounded=0;orthogonalLoop=1;jettySize=auto;html=1;" edge="1" parent="1" source="TmMnOaNNOWwm7J46SwEm-9">
          <mxGeometry relative="1" as="geometry">
            <mxPoint x="490" y="450" as="targetPoint" />
          </mxGeometry>
        </mxCell>
        <mxCell id="TmMnOaNNOWwm7J46SwEm-14" value="No" style="edgeLabel;html=1;align=center;verticalAlign=middle;resizable=0;points=[];" vertex="1" connectable="0" parent="TmMnOaNNOWwm7J46SwEm-11">
          <mxGeometry x="-0.7703" y="-1" relative="1" as="geometry">
            <mxPoint y="1" as="offset" />
          </mxGeometry>
        </mxCell>
        <mxCell id="TmMnOaNNOWwm7J46SwEm-12" style="edgeStyle=orthogonalEdgeStyle;rounded=0;orthogonalLoop=1;jettySize=auto;html=1;" edge="1" parent="1" source="TmMnOaNNOWwm7J46SwEm-9">
          <mxGeometry relative="1" as="geometry">
            <mxPoint x="670" y="270" as="targetPoint" />
          </mxGeometry>
        </mxCell>
        <mxCell id="TmMnOaNNOWwm7J46SwEm-13" value="Yes" style="edgeLabel;html=1;align=center;verticalAlign=middle;resizable=0;points=[];" vertex="1" connectable="0" parent="TmMnOaNNOWwm7J46SwEm-12">
          <mxGeometry x="-0.7011" y="2" relative="1" as="geometry">
            <mxPoint x="-1" as="offset" />
          </mxGeometry>
        </mxCell>
        <mxCell id="TmMnOaNNOWwm7J46SwEm-9" value="Download Sucessful?" style="rhombus;whiteSpace=wrap;html=1;" vertex="1" parent="1">
          <mxGeometry x="450" y="230" width="80" height="80" as="geometry" />
        </mxCell>
        <mxCell id="TmMnOaNNOWwm7J46SwEm-17" style="edgeStyle=orthogonalEdgeStyle;rounded=0;orthogonalLoop=1;jettySize=auto;html=1;" edge="1" parent="1" source="TmMnOaNNOWwm7J46SwEm-15" target="TmMnOaNNOWwm7J46SwEm-16">
          <mxGeometry relative="1" as="geometry" />
        </mxCell>
        <mxCell id="TmMnOaNNOWwm7J46SwEm-15" value="UI shows &quot;Download successful&quot; message" style="rounded=0;whiteSpace=wrap;html=1;" vertex="1" parent="1">
          <mxGeometry x="670" y="240" width="120" height="60" as="geometry" />
        </mxCell>
        <mxCell id="TmMnOaNNOWwm7J46SwEm-16" value="End" style="ellipse;whiteSpace=wrap;html=1;aspect=fixed;" vertex="1" parent="1">
          <mxGeometry x="880" y="230" width="80" height="80" as="geometry" />
        </mxCell>
        <mxCell id="TmMnOaNNOWwm7J46SwEm-20" style="edgeStyle=orthogonalEdgeStyle;rounded=0;orthogonalLoop=1;jettySize=auto;html=1;" edge="1" parent="1" source="TmMnOaNNOWwm7J46SwEm-18" target="TmMnOaNNOWwm7J46SwEm-19">
          <mxGeometry relative="1" as="geometry" />
        </mxCell>
        <mxCell id="TmMnOaNNOWwm7J46SwEm-18" value="UI shows &quot; Error: could not download &quot; message" style="rounded=0;whiteSpace=wrap;html=1;" vertex="1" parent="1">
          <mxGeometry x="430" y="450" width="120" height="60" as="geometry" />
        </mxCell>
        <mxCell id="TmMnOaNNOWwm7J46SwEm-19" value="End" style="ellipse;whiteSpace=wrap;html=1;aspect=fixed;" vertex="1" parent="1">
          <mxGeometry x="450" y="585" width="80" height="80" as="geometry" />
        </mxCell>
      </root>
    </mxGraphModel>
  </diagram>
  <diagram id="Nhh2x-HHGed6cq4f0MFz" name="Download Media To Device-Server side Architecture">
    <mxGraphModel dx="2722" dy="1084" grid="1" gridSize="10" guides="1" tooltips="1" connect="1" arrows="1" fold="1" page="1" pageScale="1" pageWidth="827" pageHeight="1169" math="0" shadow="0">
      <root>
        <mxCell id="0" />
        <mxCell id="1" parent="0" />
        <mxCell id="RMwaqrZt3SUSb4cvg1fb-1" value="&lt;h1 style=&quot;margin-top: 0px;&quot;&gt;Download Media To Device-Server side architecture diagram&lt;/h1&gt;&lt;p&gt;Goal:&lt;span style=&quot;background-color: transparent; color: light-dark(rgb(0, 0, 0), rgb(255, 255, 255));&quot;&gt;To detail the server-only, bidirectional flow for securely generating a temporary download link for a specific photo.&lt;/span&gt;&lt;/p&gt;" style="text;html=1;whiteSpace=wrap;overflow=hidden;rounded=0;" vertex="1" parent="1">
          <mxGeometry x="-800" y="50" width="840" height="120" as="geometry" />
        </mxCell>
        <mxCell id="RMwaqrZt3SUSb4cvg1fb-8" style="edgeStyle=orthogonalEdgeStyle;rounded=0;orthogonalLoop=1;jettySize=auto;html=1;" edge="1" parent="1" source="RMwaqrZt3SUSb4cvg1fb-2" target="RMwaqrZt3SUSb4cvg1fb-7">
          <mxGeometry relative="1" as="geometry" />
        </mxCell>
        <mxCell id="RMwaqrZt3SUSb4cvg1fb-9" value="&lt;p data-pm-slice=&quot;1 1 [&amp;quot;ordered_list&amp;quot;,{&amp;quot;order&amp;quot;:1},&amp;quot;list_item&amp;quot;,{},&amp;quot;bullet_list&amp;quot;,{},&amp;quot;list_item&amp;quot;,{}]&quot;&gt;&lt;code&gt;(1. GET /photos/download/{photo_id} [JWT])&lt;/code&gt;&lt;/p&gt;" style="edgeLabel;html=1;align=center;verticalAlign=middle;resizable=0;points=[];" vertex="1" connectable="0" parent="RMwaqrZt3SUSb4cvg1fb-8">
          <mxGeometry x="-0.2766" y="1" relative="1" as="geometry">
            <mxPoint x="36" y="1" as="offset" />
          </mxGeometry>
        </mxCell>
        <mxCell id="RMwaqrZt3SUSb4cvg1fb-2" value="Mobile App(External Factor)" style="rounded=0;whiteSpace=wrap;html=1;" vertex="1" parent="1">
          <mxGeometry x="-820" y="345" width="120" height="60" as="geometry" />
        </mxCell>
        <mxCell id="RMwaqrZt3SUSb4cvg1fb-3" value="Server side archtitecture" style="swimlane;childLayout=stackLayout;resizeParent=1;resizeParentMax=0;startSize=20;html=1;" vertex="1" parent="1">
          <mxGeometry x="-489.99999999999955" y="230" width="2070" height="870" as="geometry" />
        </mxCell>
        <mxCell id="RMwaqrZt3SUSb4cvg1fb-4" value="Amazon API gateway" style="swimlane;startSize=20;html=1;" vertex="1" parent="RMwaqrZt3SUSb4cvg1fb-3">
          <mxGeometry y="20" width="590" height="850" as="geometry" />
        </mxCell>
        <mxCell id="RMwaqrZt3SUSb4cvg1fb-11" style="edgeStyle=orthogonalEdgeStyle;rounded=0;orthogonalLoop=1;jettySize=auto;html=1;" edge="1" parent="RMwaqrZt3SUSb4cvg1fb-4" source="RMwaqrZt3SUSb4cvg1fb-7" target="RMwaqrZt3SUSb4cvg1fb-10">
          <mxGeometry relative="1" as="geometry" />
        </mxCell>
        <mxCell id="RMwaqrZt3SUSb4cvg1fb-7" value="Amazon API Gateway" style="sketch=0;outlineConnect=0;fontColor=#232F3E;gradientColor=none;strokeColor=#ffffff;fillColor=#232F3E;dashed=0;verticalLabelPosition=middle;verticalAlign=bottom;align=center;html=1;whiteSpace=wrap;fontSize=10;fontStyle=1;spacing=3;shape=mxgraph.aws4.productIcon;prIcon=mxgraph.aws4.api_gateway;" vertex="1" parent="RMwaqrZt3SUSb4cvg1fb-4">
          <mxGeometry x="159.99999999999955" y="70" width="80" height="110" as="geometry" />
        </mxCell>
        <mxCell id="RMwaqrZt3SUSb4cvg1fb-12" style="edgeStyle=orthogonalEdgeStyle;rounded=0;orthogonalLoop=1;jettySize=auto;html=1;" edge="1" parent="RMwaqrZt3SUSb4cvg1fb-4" source="RMwaqrZt3SUSb4cvg1fb-10">
          <mxGeometry relative="1" as="geometry">
            <mxPoint x="779.9999999999995" y="125" as="targetPoint" />
          </mxGeometry>
        </mxCell>
        <mxCell id="RMwaqrZt3SUSb4cvg1fb-13" value="Yes" style="edgeLabel;html=1;align=center;verticalAlign=middle;resizable=0;points=[];" vertex="1" connectable="0" parent="RMwaqrZt3SUSb4cvg1fb-12">
          <mxGeometry x="-0.8505" y="-1" relative="1" as="geometry">
            <mxPoint as="offset" />
          </mxGeometry>
        </mxCell>
        <mxCell id="RMwaqrZt3SUSb4cvg1fb-14" value="&lt;p data-pm-slice=&quot;1 1 [&amp;quot;ordered_list&amp;quot;,{&amp;quot;order&amp;quot;:1},&amp;quot;list_item&amp;quot;,{},&amp;quot;bullet_list&amp;quot;,{},&amp;quot;list_item&amp;quot;,{}]&quot;&gt;&lt;code&gt;(2. Validates JWT, triggers Lambda)&lt;/code&gt;&lt;/p&gt;" style="edgeLabel;html=1;align=center;verticalAlign=middle;resizable=0;points=[];" vertex="1" connectable="0" parent="RMwaqrZt3SUSb4cvg1fb-12">
          <mxGeometry x="-0.0368" y="1" relative="1" as="geometry">
            <mxPoint as="offset" />
          </mxGeometry>
        </mxCell>
        <mxCell id="RMwaqrZt3SUSb4cvg1fb-10" value="Is JWT&amp;nbsp;&lt;div&gt;valid?&lt;/div&gt;" style="rhombus;whiteSpace=wrap;html=1;" vertex="1" parent="RMwaqrZt3SUSb4cvg1fb-4">
          <mxGeometry x="359.99999999999955" y="85" width="80" height="80" as="geometry" />
        </mxCell>
        <mxCell id="RMwaqrZt3SUSb4cvg1fb-30" style="edgeStyle=orthogonalEdgeStyle;rounded=0;orthogonalLoop=1;jettySize=auto;html=1;exitX=0;exitY=0.5;exitDx=0;exitDy=0;" edge="1" parent="RMwaqrZt3SUSb4cvg1fb-4" source="RMwaqrZt3SUSb4cvg1fb-28">
          <mxGeometry relative="1" as="geometry">
            <mxPoint x="209.99999999999955" y="180" as="targetPoint" />
            <mxPoint x="699.2500000000005" y="350.0000000000002" as="sourcePoint" />
            <Array as="points">
              <mxPoint x="220" y="400" />
              <mxPoint x="220" y="180" />
            </Array>
          </mxGeometry>
        </mxCell>
        <mxCell id="RMwaqrZt3SUSb4cvg1fb-31" value="Yes" style="edgeLabel;html=1;align=center;verticalAlign=middle;resizable=0;points=[];" vertex="1" connectable="0" parent="RMwaqrZt3SUSb4cvg1fb-30">
          <mxGeometry x="-0.8629" y="-1" relative="1" as="geometry">
            <mxPoint as="offset" />
          </mxGeometry>
        </mxCell>
        <mxCell id="RMwaqrZt3SUSb4cvg1fb-32" value="&lt;p data-pm-slice=&quot;1 1 [&amp;quot;ordered_list&amp;quot;,{&amp;quot;order&amp;quot;:1},&amp;quot;list_item&amp;quot;,{},&amp;quot;bullet_list&amp;quot;,{},&amp;quot;list_item&amp;quot;,{}]&quot;&gt;&lt;code&gt;(5. 200 OK Response [pre_signed_url])&lt;/code&gt;&lt;/p&gt;" style="edgeLabel;html=1;align=center;verticalAlign=middle;resizable=0;points=[];" vertex="1" connectable="0" parent="RMwaqrZt3SUSb4cvg1fb-30">
          <mxGeometry x="-0.0036" y="2" relative="1" as="geometry">
            <mxPoint x="24" y="-2" as="offset" />
          </mxGeometry>
        </mxCell>
        <mxCell id="RMwaqrZt3SUSb4cvg1fb-5" value="Lambda" style="swimlane;startSize=20;html=1;" vertex="1" parent="RMwaqrZt3SUSb4cvg1fb-3">
          <mxGeometry x="590" y="20" width="460" height="850" as="geometry" />
        </mxCell>
        <mxCell id="RMwaqrZt3SUSb4cvg1fb-27" style="edgeStyle=orthogonalEdgeStyle;rounded=0;orthogonalLoop=1;jettySize=auto;html=1;" edge="1" parent="RMwaqrZt3SUSb4cvg1fb-5" source="RMwaqrZt3SUSb4cvg1fb-20">
          <mxGeometry relative="1" as="geometry">
            <mxPoint x="224.49999999999955" y="300" as="targetPoint" />
          </mxGeometry>
        </mxCell>
        <mxCell id="RMwaqrZt3SUSb4cvg1fb-20" value="" style="outlineConnect=0;dashed=0;verticalLabelPosition=bottom;verticalAlign=top;align=center;html=1;shape=mxgraph.aws3.lambda_function;fillColor=#F58534;gradientColor=none;" vertex="1" parent="RMwaqrZt3SUSb4cvg1fb-5">
          <mxGeometry x="189.99999999999955" y="85" width="69" height="72" as="geometry" />
        </mxCell>
        <mxCell id="RMwaqrZt3SUSb4cvg1fb-21" value="getDownloadUrlLambda" style="text;html=1;whiteSpace=wrap;strokeColor=none;fillColor=none;align=center;verticalAlign=middle;rounded=0;" vertex="1" parent="RMwaqrZt3SUSb4cvg1fb-5">
          <mxGeometry x="149.49999999999955" y="50" width="150" height="20" as="geometry" />
        </mxCell>
        <mxCell id="RMwaqrZt3SUSb4cvg1fb-28" value="Does Photo exist and does &#39;owner_id&#39; match &#39;user_id&#39;?" style="rhombus;whiteSpace=wrap;html=1;" vertex="1" parent="RMwaqrZt3SUSb4cvg1fb-5">
          <mxGeometry x="89.25" y="300" width="270.5" height="200" as="geometry" />
        </mxCell>
        <mxCell id="RMwaqrZt3SUSb4cvg1fb-6" value="Amazon RDS(postgreSQL)" style="swimlane;startSize=20;html=1;" vertex="1" parent="RMwaqrZt3SUSb4cvg1fb-3">
          <mxGeometry x="1050" y="20" width="1020" height="850" as="geometry" />
        </mxCell>
        <mxCell id="RMwaqrZt3SUSb4cvg1fb-22" value="Amazon RDS" style="sketch=0;outlineConnect=0;fontColor=#232F3E;gradientColor=none;strokeColor=#ffffff;fillColor=#232F3E;dashed=0;verticalLabelPosition=middle;verticalAlign=bottom;align=center;html=1;whiteSpace=wrap;fontSize=10;fontStyle=1;spacing=3;shape=mxgraph.aws4.productIcon;prIcon=mxgraph.aws4.rds;" vertex="1" parent="RMwaqrZt3SUSb4cvg1fb-6">
          <mxGeometry x="419.99999999999955" y="80.5" width="80" height="89" as="geometry" />
        </mxCell>
        <mxCell id="RMwaqrZt3SUSb4cvg1fb-23" style="edgeStyle=orthogonalEdgeStyle;rounded=0;orthogonalLoop=1;jettySize=auto;html=1;" edge="1" parent="RMwaqrZt3SUSb4cvg1fb-3" source="RMwaqrZt3SUSb4cvg1fb-20" target="RMwaqrZt3SUSb4cvg1fb-22">
          <mxGeometry relative="1" as="geometry" />
        </mxCell>
        <mxCell id="RMwaqrZt3SUSb4cvg1fb-24" value="&lt;p data-pm-slice=&quot;1 1 [&amp;quot;ordered_list&amp;quot;,{&amp;quot;order&amp;quot;:1},&amp;quot;list_item&amp;quot;,{},&amp;quot;bullet_list&amp;quot;,{},&amp;quot;list_item&amp;quot;,{}]&quot;&gt;&lt;code&gt;(3. SELECT owner_id, object_key FROM photos WHERE photo_id = [photo_id])&lt;/code&gt;&lt;/p&gt;" style="edgeLabel;html=1;align=center;verticalAlign=middle;resizable=0;points=[];" vertex="1" connectable="0" parent="RMwaqrZt3SUSb4cvg1fb-23">
          <mxGeometry x="-0.4596" relative="1" as="geometry">
            <mxPoint x="117" as="offset" />
          </mxGeometry>
        </mxCell>
        <mxCell id="RMwaqrZt3SUSb4cvg1fb-25" style="edgeStyle=orthogonalEdgeStyle;rounded=0;orthogonalLoop=1;jettySize=auto;html=1;entryX=0.855;entryY=0.855;entryDx=0;entryDy=0;entryPerimeter=0;" edge="1" parent="RMwaqrZt3SUSb4cvg1fb-3" source="RMwaqrZt3SUSb4cvg1fb-22" target="RMwaqrZt3SUSb4cvg1fb-20">
          <mxGeometry relative="1" as="geometry">
            <Array as="points">
              <mxPoint x="1450" y="160" />
              <mxPoint x="1450" y="190" />
              <mxPoint x="839" y="190" />
            </Array>
          </mxGeometry>
        </mxCell>
        <mxCell id="RMwaqrZt3SUSb4cvg1fb-26" value="&lt;p data-pm-slice=&quot;1 1 [&amp;quot;ordered_list&amp;quot;,{&amp;quot;order&amp;quot;:1},&amp;quot;list_item&amp;quot;,{},&amp;quot;bullet_list&amp;quot;,{},&amp;quot;list_item&amp;quot;,{}]&quot;&gt;&lt;code&gt;(4. Photo Record [owner_id, object_key])&lt;/code&gt;&lt;/p&gt;" style="edgeLabel;html=1;align=center;verticalAlign=middle;resizable=0;points=[];" vertex="1" connectable="0" parent="RMwaqrZt3SUSb4cvg1fb-25">
          <mxGeometry x="0.2076" y="1" relative="1" as="geometry">
            <mxPoint as="offset" />
          </mxGeometry>
        </mxCell>
        <mxCell id="RMwaqrZt3SUSb4cvg1fb-34" style="edgeStyle=orthogonalEdgeStyle;rounded=0;orthogonalLoop=1;jettySize=auto;html=1;" edge="1" parent="RMwaqrZt3SUSb4cvg1fb-3" source="RMwaqrZt3SUSb4cvg1fb-28" target="RMwaqrZt3SUSb4cvg1fb-7">
          <mxGeometry relative="1" as="geometry">
            <Array as="points">
              <mxPoint x="815" y="620" />
              <mxPoint x="200" y="620" />
            </Array>
          </mxGeometry>
        </mxCell>
        <mxCell id="RMwaqrZt3SUSb4cvg1fb-35" value="No" style="edgeLabel;html=1;align=center;verticalAlign=middle;resizable=0;points=[];" vertex="1" connectable="0" parent="RMwaqrZt3SUSb4cvg1fb-34">
          <mxGeometry x="-0.9294" y="1" relative="1" as="geometry">
            <mxPoint y="-1" as="offset" />
          </mxGeometry>
        </mxCell>
        <mxCell id="RMwaqrZt3SUSb4cvg1fb-36" value="&lt;p data-pm-slice=&quot;1 1 [&amp;quot;ordered_list&amp;quot;,{&amp;quot;order&amp;quot;:1},&amp;quot;list_item&amp;quot;,{},&amp;quot;bullet_list&amp;quot;,{},&amp;quot;list_item&amp;quot;,{}]&quot;&gt;&lt;code&gt;(5b. 404 Not Found Error)&lt;/code&gt;&lt;/p&gt;" style="edgeLabel;html=1;align=center;verticalAlign=middle;resizable=0;points=[];" vertex="1" connectable="0" parent="RMwaqrZt3SUSb4cvg1fb-34">
          <mxGeometry x="-0.1447" y="-1" relative="1" as="geometry">
            <mxPoint x="1" as="offset" />
          </mxGeometry>
        </mxCell>
        <mxCell id="RMwaqrZt3SUSb4cvg1fb-16" style="edgeStyle=orthogonalEdgeStyle;rounded=0;orthogonalLoop=1;jettySize=auto;html=1;entryX=0.917;entryY=0.971;entryDx=0;entryDy=0;entryPerimeter=0;" edge="1" parent="1" source="RMwaqrZt3SUSb4cvg1fb-10" target="RMwaqrZt3SUSb4cvg1fb-2">
          <mxGeometry relative="1" as="geometry">
            <Array as="points">
              <mxPoint x="-90" y="530" />
              <mxPoint x="-710" y="530" />
            </Array>
          </mxGeometry>
        </mxCell>
        <mxCell id="RMwaqrZt3SUSb4cvg1fb-18" value="&lt;p data-pm-slice=&quot;1 1 [&amp;quot;ordered_list&amp;quot;,{&amp;quot;order&amp;quot;:1},&amp;quot;list_item&amp;quot;,{},&amp;quot;bullet_list&amp;quot;,{},&amp;quot;list_item&amp;quot;,{}]&quot;&gt;&lt;code&gt;(2b. 401 Unauthorized Error)&lt;/code&gt;&lt;/p&gt;" style="edgeLabel;html=1;align=center;verticalAlign=middle;resizable=0;points=[];" vertex="1" connectable="0" parent="RMwaqrZt3SUSb4cvg1fb-16">
          <mxGeometry x="0.044" y="-1" relative="1" as="geometry">
            <mxPoint x="-165" as="offset" />
          </mxGeometry>
        </mxCell>
        <mxCell id="RMwaqrZt3SUSb4cvg1fb-19" value="No" style="edgeLabel;html=1;align=center;verticalAlign=middle;resizable=0;points=[];" vertex="1" connectable="0" parent="RMwaqrZt3SUSb4cvg1fb-16">
          <mxGeometry x="-0.9038" relative="1" as="geometry">
            <mxPoint y="-26" as="offset" />
          </mxGeometry>
        </mxCell>
        <mxCell id="RMwaqrZt3SUSb4cvg1fb-37" style="edgeStyle=orthogonalEdgeStyle;rounded=0;orthogonalLoop=1;jettySize=auto;html=1;" edge="1" parent="1" source="RMwaqrZt3SUSb4cvg1fb-7" target="RMwaqrZt3SUSb4cvg1fb-2">
          <mxGeometry relative="1" as="geometry">
            <Array as="points">
              <mxPoint x="-290" y="300" />
              <mxPoint x="-760" y="300" />
            </Array>
          </mxGeometry>
        </mxCell>
        <mxCell id="RMwaqrZt3SUSb4cvg1fb-38" value="&lt;p data-pm-slice=&quot;1 1 [&amp;quot;ordered_list&amp;quot;,{&amp;quot;order&amp;quot;:1},&amp;quot;list_item&amp;quot;,{},&amp;quot;bullet_list&amp;quot;,{},&amp;quot;list_item&amp;quot;,{}]&quot;&gt;&lt;code&gt;(6. 200 OK Response [pre_signed_url])&lt;/code&gt;&lt;/p&gt;" style="edgeLabel;html=1;align=center;verticalAlign=middle;resizable=0;points=[];" vertex="1" connectable="0" parent="RMwaqrZt3SUSb4cvg1fb-37">
          <mxGeometry x="-0.0248" y="-1" relative="1" as="geometry">
            <mxPoint x="1" as="offset" />
          </mxGeometry>
        </mxCell>
        <mxCell id="RMwaqrZt3SUSb4cvg1fb-39" style="edgeStyle=orthogonalEdgeStyle;rounded=0;orthogonalLoop=1;jettySize=auto;html=1;entryX=0.676;entryY=0.002;entryDx=0;entryDy=0;entryPerimeter=0;" edge="1" parent="1" source="RMwaqrZt3SUSb4cvg1fb-7" target="RMwaqrZt3SUSb4cvg1fb-2">
          <mxGeometry relative="1" as="geometry">
            <mxPoint x="-740" y="330" as="targetPoint" />
            <Array as="points">
              <mxPoint x="-515" y="340" />
              <mxPoint x="-515" y="330" />
              <mxPoint x="-740" y="330" />
              <mxPoint x="-740" y="340" />
              <mxPoint x="-739" y="340" />
            </Array>
          </mxGeometry>
        </mxCell>
        <mxCell id="RMwaqrZt3SUSb4cvg1fb-40" value="&lt;p data-pm-slice=&quot;1 1 [&amp;quot;ordered_list&amp;quot;,{&amp;quot;order&amp;quot;:1},&amp;quot;list_item&amp;quot;,{},&amp;quot;bullet_list&amp;quot;,{},&amp;quot;list_item&amp;quot;,{}]&quot;&gt;&lt;code&gt;(6b. 404 Not Found Error)&lt;/code&gt;&lt;/p&gt;" style="edgeLabel;html=1;align=center;verticalAlign=middle;resizable=0;points=[];" vertex="1" connectable="0" parent="RMwaqrZt3SUSb4cvg1fb-39">
          <mxGeometry x="0.3728" y="-2" relative="1" as="geometry">
            <mxPoint x="1" as="offset" />
          </mxGeometry>
        </mxCell>
      </root>
    </mxGraphModel>
  </diagram>
  <diagram id="k1Ha_yQ0VzgORcMB60WS" name="Download Media To Device-Block Diagram">
    <mxGraphModel dx="1737" dy="993" grid="1" gridSize="10" guides="1" tooltips="1" connect="1" arrows="1" fold="1" page="1" pageScale="1" pageWidth="827" pageHeight="1169" math="0" shadow="0">
      <root>
        <mxCell id="0" />
        <mxCell id="1" parent="0" />
        <mxCell id="sumxcF3jeZNzO4c22_k_-1" value="&lt;h3 data-pm-slice=&quot;1 1 []&quot;&gt;&lt;strong&gt;2. Amazon RDS (PostgreSQL): Database Schema&lt;/strong&gt;&lt;/h3&gt;&lt;p&gt;This diagram shows the database tables we will create inside our PostgreSQL instance. These tables will hold all the metadata for our application.&lt;/p&gt;" style="text;html=1;whiteSpace=wrap;strokeColor=none;fillColor=none;align=center;verticalAlign=middle;rounded=0;" vertex="1" parent="1">
          <mxGeometry x="110" y="180" width="790" height="80" as="geometry" />
        </mxCell>
        <mxCell id="sumxcF3jeZNzO4c22_k_-2" value="" style="rounded=0;whiteSpace=wrap;html=1;" vertex="1" parent="1">
          <mxGeometry x="460" y="329" width="340" height="840" as="geometry" />
        </mxCell>
        <mxCell id="sumxcF3jeZNzO4c22_k_-3" value="Amazon RDS Instance: &quot;photosync-db&quot;" style="text;html=1;whiteSpace=wrap;strokeColor=none;fillColor=none;align=center;verticalAlign=middle;rounded=0;" vertex="1" parent="1">
          <mxGeometry x="514" y="380" width="246" height="30" as="geometry" />
        </mxCell>
        <mxCell id="sumxcF3jeZNzO4c22_k_-4" value="" style="rounded=0;whiteSpace=wrap;html=1;" vertex="1" parent="1">
          <mxGeometry x="520" y="450" width="230" height="160" as="geometry" />
        </mxCell>
        <mxCell id="sumxcF3jeZNzO4c22_k_-5" value="Table: &quot;users&quot;" style="text;html=1;whiteSpace=wrap;strokeColor=none;fillColor=none;align=center;verticalAlign=middle;rounded=0;" vertex="1" parent="1">
          <mxGeometry x="520" y="460" width="140" height="30" as="geometry" />
        </mxCell>
        <mxCell id="sumxcF3jeZNzO4c22_k_-6" value="- user_id (Primary Key)&lt;div&gt;- email&lt;br&gt;- storage_used (e.g., 2.5GB)&lt;br&gt;- storage_quota (e.g., 5GB)&lt;/div&gt;" style="text;html=1;whiteSpace=wrap;strokeColor=none;fillColor=none;align=center;verticalAlign=middle;rounded=0;" vertex="1" parent="1">
          <mxGeometry x="550" y="510" width="163" height="70" as="geometry" />
        </mxCell>
        <mxCell id="sumxcF3jeZNzO4c22_k_-7" value="" style="rounded=0;whiteSpace=wrap;html=1;" vertex="1" parent="1">
          <mxGeometry x="520" y="690" width="230" height="180" as="geometry" />
        </mxCell>
        <mxCell id="sumxcF3jeZNzO4c22_k_-8" value="Table: &quot;photos&quot;" style="text;html=1;whiteSpace=wrap;strokeColor=none;fillColor=none;align=center;verticalAlign=middle;rounded=0;" vertex="1" parent="1">
          <mxGeometry x="540" y="710" width="140" height="30" as="geometry" />
        </mxCell>
        <mxCell id="sumxcF3jeZNzO4c22_k_-9" value="- photo_id (Primary Key)&lt;br/&gt;- owner_id (Foreign Key to users)&lt;br/&gt;- object_key (e.g., &quot;user_id_123/...&quot;)&lt;br/&gt;- file_size&lt;br/&gt;- created_at (timestamp)" style="text;html=1;whiteSpace=wrap;strokeColor=none;fillColor=none;align=center;verticalAlign=middle;rounded=0;" vertex="1" parent="1">
          <mxGeometry x="520" y="760" width="250" height="70" as="geometry" />
        </mxCell>
        <mxCell id="sumxcF3jeZNzO4c22_k_-10" value="" style="rounded=0;whiteSpace=wrap;html=1;" vertex="1" parent="1">
          <mxGeometry x="520" y="950" width="230" height="150" as="geometry" />
        </mxCell>
        <mxCell id="sumxcF3jeZNzO4c22_k_-11" value="Table: &quot;pending_uploads&quot;" style="text;html=1;whiteSpace=wrap;strokeColor=none;fillColor=none;align=center;verticalAlign=middle;rounded=0;" vertex="1" parent="1">
          <mxGeometry x="540" y="970" width="160" height="30" as="geometry" />
        </mxCell>
        <mxCell id="sumxcF3jeZNzO4c22_k_-12" value="- pending_id (Primary Key)&lt;br/&gt;- owner_id (Foreign Key to users)&lt;br/&gt;- file_size&lt;br/&gt;- created_at (timestamp)" style="text;html=1;whiteSpace=wrap;strokeColor=none;fillColor=none;align=center;verticalAlign=middle;rounded=0;" vertex="1" parent="1">
          <mxGeometry x="536.5" y="1020" width="190" height="60" as="geometry" />
        </mxCell>
      </root>
    </mxGraphModel>
  </diagram>
</mxfile>
